<svg xmlns="http://www.w3.org/2000/svg" viewBox="0 0 1000 1000"><defs><style>.a{fill:#39c5bb;}.b{fill:#fff;}</style></defs><title>favicon</title><polygon class="a" points="109.81 274.72 109.81 725.28 500 950.56 890.19 725.28 890.19 274.72 500 49.44 109.81 274.72"/><path class="b" d="M754.09,711q5.16,4.57,5.16,10.32c0,4.32-1.79,8.33-5.34,12s-7.52,5.54-11.85,5.54a43,43,0,0,1-7.64-.77c-2.8-.52-5.46-1-8-1.53-13.24-2.29-34-4.2-45-5.72a243.9,243.9,0,0,0-34-2.3,263.49,263.49,0,0,0-33.8,2.1q-16.23,2.1-36.47,5.92c-9.68,1.53-14.76,2.3-15.27,2.3q-6.88,0-12.42-6.11t-5.54-13q0-11.46,14.14-15.27,20.63-5.73,20.62-27.89,0-12.21-5.73-28.64l-12.6-36.66-18.33-53.08c-19.1-1.78-28-11.8-52.66-11.8-31.06,0-71.33,10.91-94.75,14.47Q369,628.5,356.46,669.37a33.56,33.56,0,0,0-1.53,9.93q0,9.16,6.29,13t21.59,8l11.84,3.44q12.21,3.81,12.22,13.37,0,7.23-6.11,14.13t-11.46,6.87a29,29,0,0,1-6.11-.76l-6.88-1.53q-35.88-8-57.66-8A95.93,95.93,0,0,0,298,729.9q-9.54,2.1-23.67,5.92c-6.12,2-10.32,3.06-12.61,3.06q-8,0-14.5-6.31c-4.34-4.2-6.49-8.73-6.49-13.56q0-8.79,11.45-12.22,18-4.95,39-26t34.74-51.56q15.28-34,52.9-127.55T452.32,312.3a26,26,0,0,0-6.5-6.49,53.37,53.37,0,0,0-7.63-3.83,19.39,19.39,0,0,1-5.36-2.86c-1-.89-1.52-2.35-1.52-4.39q0-6.12,6.68-13.94A76.63,76.63,0,0,1,453.46,267q8.78-5.91,14.13-5.92,4.57,0,20.81,3.25t30.17,7.45q13.93,4.2,15.47,8a13.6,13.6,0,0,1,1.15,5.35,25.23,25.23,0,0,1-.39,4.2,35.22,35.22,0,0,0-.38,5.73q0,9.18,5,25.21,5.34,15.66,57.86,145.89t73.51,176.42q11.09,23.68,16.81,33.62A58.87,58.87,0,0,0,703,693.62c6.49,5,24,8.6,35.23,10.89Q748.93,706.42,754.09,711ZM487.72,514.43c15.77,0,24.8,8,42.11,9.05l-10.3-29.79q-31.33-90.88-44.69-127.17Q441.24,442.92,408,526.15C427.86,523.36,459.46,514.43,487.72,514.43Z"/></svg>